PathFileType	4	(X/Y/Z)	static.trc
DataRate	CameraRate	NumFrames	NumMarkers	Units	OrigDataRate	OrigDataStartFrame	OrigNumFrames
250.000000	250.000000	4	58	mm	250.000000	0	483
Frame#	Time	RASI			LASI			RPSI			LPSI			RAIC			LAIC			RLFC			RMFC			RTH1			RTH2			RTH3			RLMAL			RMMAL			RTB1			RTB2			RTB3			RCAL			RMT1			RMT5			LLFC			LMFC			LTH1			LTH2			LTH3			LLMAL			LMMAL			LTB1			LTB2			LTB3			LCAL			LMT1			LMT5			C7			T10			CLAV			STRN			RACR			LACR			RHJC			LHJC			RKJC			LKJC			RAJC			LAJC			RMT3			LMT3			fRCAL			fLCAL			fRAJC			fLAJC			fRMT1			fLMT1			fRMT5			fLMT5			fRMT3			fLMT3			MTOR			MPEL			
		X1	Y1	Z1	X2	Y2	Z2	X3	Y3	Z3	X4	Y4	Z4	X5	Y5	Z5	X6	Y6	Z6	X7	Y7	Z7	X8	Y8	Z8	X9	Y9	Z9	X10	Y10	Z10	X11	Y11	Z11	X12	Y12	Z12	X13	Y13	Z13	X14	Y14	Z14	X15	Y15	Z15	X16	Y16	Z16	X17	Y17	Z17	X18	Y18	Z18	X19	Y19	Z19	X20	Y20	Z20	X21	Y21	Z21	X22	Y22	Z22	X23	Y23	Z23	X24	Y24	Z24	X25	Y25	Z25	X26	Y26	Z26	X27	Y27	Z27	X28	Y28	Z28	X29	Y29	Z29	X30	Y30	Z30	X31	Y31	Z31	X32	Y32	Z32	X33	Y33	Z33	X34	Y34	Z34	X35	Y35	Z35	X36	Y36	Z36	X37	Y37	Z37	X38	Y38	Z38	X39	Y39	Z39	X40	Y40	Z40	X41	Y41	Z41	X42	Y42	Z42	X43	Y43	Z43	X44	Y44	Z44	X45	Y45	Z45	X46	Y46	Z46	X47	Y47	Z47	X48	Y48	Z48	X49	Y49	Z49	X50	Y50	Z50	X51	Y51	Z51	X52	Y52	Z52	X53	Y53	Z53	X54	Y54	Z54	X55	Y55	Z55	X56	Y56	Z56	X57	Y57	Z57	X58	Y58	Z58	

1	0	522.0675048828127	1042.857421875	405.617126464844	516.0073242187502	1059.171020507813	188.5961303710938	344.7112121582032	1081.543701171875	356.669647216797	344.339324951172	1086.586181640625	260.944549560547	448.6422119140627	1113.323120117188	457.4237976074221	455.1620788574221	1124.880737304688	159.7558135986329	418.7941894531252	551.5449218750002	490.0539245605471	405.4687194824221	520.986755371094	369.2994689941407	441.4744262695315	805.7537231445317	501.015075683594	487.9714965820315	713.544616699219	490.5460510253909	424.655700683594	628.8316040039065	491.7701416015627	366.650604248047	96.31224060058599	507.422302246094	396.3149414062502	105.505485534668	417.1119689941409	434.9786682128909	397.2525939941409	427.0154113769534	443.4707336425784	331.495086669922	482.951110839844	427.369812011719	258.5495910644532	441.5929870605471	312.4712524414064	44.69241333007814	454.888122558594	530.9884033203127	47.07388305664064	445.888854980469	519.7384033203127	43.46021270751955	554.957458496094	417.6701660156252	545.7597656250002	108.9327239990235	409.309509277344	520.0881958007815	231.7148895263673	435.9175109863284	832.2944946289067	102.1657028198243	475.2106933593752	741.0219726562502	105.6143264770508	411.0073242187502	660.0947875976565	110.8227539062501	372.0498657226564	100.0236053466797	88.03240966796878	400.2002258300784	102.7548217773438	178.8167572021485	438.2939453125002	396.1658935546877	169.8021545410157	449.2940368652346	324.6472473144532	121.3076782226563	424.2118225097659	258.2622985839845	166.567855834961	318.1036682128907	44.44155502319337	134.3320007324219	540.7525024414065	42.90791320800783	162.1030731201172	533.1526489257815	41.28053665161134	52.37978744506839	363.2486877441407	1543.874267578126	312.6879882812501	336.0084838867189	1271.517578125	306.7933959960939	498.6869812011721	1498.1865234375	307.4981994628907	566.4761962890627	1315.627197265625	307.5507202148439	363.9922485351564	1536.671020507813	483.5084533691409	356.5577087402345	1539.784057617188	141.2401733398438	466.6872093980236	989.6645093751604	366.0415587059209	462.6870837680668	1000.432578451866	222.7931480007171	412.1314544677737	536.2658386230471	429.6766967773439	413.4898376464846	532.9239807128909	170.3238067626954	381.4827728271486	100.908863067627	462.2671356201174	386.1250457763674	101.3892135620117	133.4245834350587	525.3634033203127	45.26704788208009	500.4231567382815	536.952575683594	42.09422492980958	107.2414302825928	312.4712524414064	0	454.888122558594	318.1036682128907	0	134.3320007324219	381.4827728271486	0	462.2671356201174	386.1250457763674	0	133.4245834350587	530.9884033203127	0	445.888854980469	540.7525024414065	0	162.1030731201172	519.7384033203127	0	554.957458496094	533.1526489257815	0	52.37978744506839	525.3634033203127	0	500.4231567382815	536.952575683594	0	107.2414302825928	395.6214065551759	1529.628967285157	311.2337036132814	431.7813415527345	1067.539581298828	302.9568634033204	
2	0.004	522.1216430664065	1042.866455078125	405.6092834472659	516.0756835937502	1059.203979492188	188.6299438476563	344.460662841797	1081.275024414063	356.6434631347657	344.3983154296876	1086.59521484375	260.9367065429689	448.6618347167971	1113.391479492188	457.3796691894534	455.238464355469	1124.9140625	159.7735900878907	418.7717895507815	551.5227050781252	490.0318298339846	405.4928283691409	520.9898071289065	369.2886657714845	441.4782409667971	805.7587890625005	500.9926757812502	488.0249328613284	713.5212402343752	490.5718688964846	424.6708068847659	628.8395996093752	491.7884521484377	366.5793762207032	96.31285095214849	507.3375549316409	396.3281250000002	105.4782028198243	417.0860290527346	434.9634399414065	397.2518005371096	426.9938659667971	443.4447326660159	331.482879638672	482.9271240234377	427.420349121094	258.649627685547	441.5933532714846	312.5116577148439	44.63045883178712	454.7071228027346	531.0067138671877	47.07643127441408	445.9055480957034	519.7379150390627	43.4503631591797	554.9651489257815	417.7426757812502	545.8008422851565	108.9750595092774	409.3213806152346	520.0811767578127	231.7605285644532	435.9721374511721	832.3588256835942	102.1620864868165	475.2559204101565	741.0322875976565	105.5636367797852	411.0341796875002	660.1296997070315	110.8013153076172	372.0725708007814	100.0164413452149	88.05175781250003	400.2019348144534	102.7540512084962	178.8522186279297	438.3153991699221	396.1523132324221	169.7759704589844	449.286071777344	324.6447143554689	121.2913055419922	424.2269287109377	258.2769165039064	166.5916137695313	318.114715576172	44.42874145507814	134.3243408203126	541.9309692382815	43.26520156860353	162.4264678955079	533.1978149414065	41.29208374023439	52.41642379760745	363.184051513672	1543.860229492188	312.5997924804689	335.9976806640626	1271.5107421875	306.7658081054689	498.6714477539065	1498.26611328125	307.4412841796876	566.4863891601565	1315.747802734375	307.5517578125001	364.0131225585939	1537.025878906251	483.4824829101565	356.5223999023439	1539.764038085938	141.144760131836	466.7728463843607	989.6413574775432	366.0270076224629	462.7821076196618	1000.425219376269	222.8060903147752	412.1323089599612	536.2562561035159	429.6602478027345	413.5320281982424	532.9410095214846	170.3677940368653	381.4537506103517	100.8955268859864	462.2117919921877	386.1372528076174	101.3852462768556	133.4519882202148	525.3723144531252	45.26339721679689	500.4353485107424	537.564392089844	42.27864265441896	107.4214458465577	312.5116577148439	0	454.7071228027346	318.114715576172	0	134.3243408203126	381.4537506103517	0	462.2117919921877	386.1372528076174	0	133.4519882202148	531.0067138671877	0	445.9055480957034	541.9309692382815	0	162.4264678955079	519.7379150390627	0	554.9651489257815	533.1978149414065	0	52.41642379760745	525.3723144531252	0	500.4353485107424	537.564392089844	0	107.4214458465577	395.5977554321291	1529.729064941407	311.1670799255372	431.7640762329103	1067.485168457031	302.9548492431642	
3	0.008	522.1404418945315	1042.868774414063	405.6346435546877	516.1229248046877	1059.207397460938	188.6507110595704	344.7939453125001	1081.541870117188	356.6194763183595	344.3933715820314	1086.594116210938	260.9389648437501	448.7264709472659	1113.402221679688	457.3757019042971	455.2737121582034	1124.936401367188	159.7379150390626	418.7624816894534	551.5166015625002	489.9882507324221	405.4756469726565	520.9807128906252	369.2642211914064	441.4867858886721	805.7590942382817	500.9680175781252	487.840026855469	713.341979980469	490.4389343261721	424.6361389160159	628.836120605469	491.7630615234377	366.6893310546876	96.32139587402349	507.4629516601565	396.335876464844	105.4944915771485	417.099304199219	434.9761047363284	397.2496032714846	426.9813232421877	443.3347167968752	331.6659545898439	482.8742980957034	427.3328857421877	258.542938232422	441.5145568847659	312.5112915039064	44.60525131225587	454.610290527344	530.9859008789065	47.06294631958009	445.8918151855471	519.7149047851565	43.43863677978517	554.9448852539065	417.8381958007815	545.7991333007815	108.9707717895508	409.2244567871096	520.0351562500002	231.6602172851564	436.0625305175784	832.3723754882817	102.1312789916993	475.3294372558596	741.037780761719	105.5562286376954	411.1135253906252	660.130554199219	110.8180236816407	372.0042724609376	100.0394668579102	87.99512481689456	400.2041015625002	102.7635803222657	178.8138732910157	438.3411865234377	396.1343688964846	169.7880249023438	449.2973632812502	324.6744995117189	121.3016967773438	424.2342834472659	258.2620849609376	166.5826416015626	318.1149291992189	44.43264007568361	134.3071289062501	541.9204711914065	43.25265121459962	162.4823303222657	533.2043457031252	41.28354644775392	52.40105819702151	363.0847473144532	1543.854003906251	312.5169372558595	335.9942932128907	1271.4814453125	306.723602294922	498.7163696289065	1498.391235351563	307.3858642578126	566.478454589844	1315.857543945313	307.524139404297	363.9364318847657	1537.055664062501	483.4035949707034	356.492156982422	1539.759765625001	141.0429687500001	466.7740147323393	989.6840525267645	366.0478893599656	462.8020498551555	1000.468639577338	222.8239406920931	412.1190643310549	536.2486572265627	429.6262359619143	413.5313262939455	532.9171447753909	170.3154945373536	381.5126037597658	100.907943725586	462.2811279296877	386.1041870117189	101.4015235900879	133.4044990539551	525.3504028320315	45.25079154968263	500.4183502197268	537.5624084472659	42.26809883117677	107.4416942596436	312.5112915039064	0	454.610290527344	318.1149291992189	0	134.3071289062501	381.5126037597658	0	462.2811279296877	386.1041870117189	0	133.4044990539551	530.9859008789065	0	445.8918151855471	541.9204711914065	0	162.4823303222657	519.7149047851565	0	554.9448852539065	533.2043457031252	0	52.40105819702151	525.3504028320315	0	500.4183502197268	537.5624084472659	0	107.4416942596436	395.5574264526368	1529.765167236329	311.0873413085939	431.8626708984377	1067.553039550782	302.9609489440919	
4	0.012	522.1791992187502	1042.875732421875	405.6070556640627	516.1656494140627	1059.213012695313	188.6359100341797	344.8442993164064	1081.582397460938	356.5572814941407	344.4523925781251	1086.578125	260.9147338867189	448.7595520019534	1113.44482421875	457.3534240722659	455.3500671386721	1124.957763671875	159.7576599121094	418.9029235839846	551.816101074219	489.8397521972659	405.5080261230471	520.993103027344	369.2662048339845	441.5060729980471	805.7826538085942	500.961608886719	487.9492492675784	713.5170898437502	490.5389709472659	424.6561584472659	628.817565917969	491.7778930664065	366.6246032714845	96.30912780761724	507.3611755371096	396.3134765625002	105.5018844604493	417.0707702636721	434.9763183593752	397.2590637207034	426.984313964844	443.3286743164065	331.6639709472657	482.872253417969	427.3432312011721	258.4987792968751	441.5490417480471	312.5302124023439	44.62820053100587	454.6145019531252	530.9985961914065	47.08840560913087	445.8999938964846	519.7258300781252	43.4884605407715	554.966735839844	417.7834777832034	545.8033447265627	108.9740676879883	409.240905761719	520.0102539062502	231.660369873047	436.1149597167971	832.3821411132817	102.112159729004	475.3586120605471	741.0298461914065	105.5321578979493	411.1435546875002	660.1342773437502	110.7717056274415	372.0557861328126	100.0261230468751	88.03127288818362	400.219665527344	102.7481155395508	178.8290710449219	438.3501892089846	396.1365966796877	169.7778320312501	449.2961120605471	324.6057128906251	121.2852249145508	424.2388000488284	258.2565307617189	166.5801544189454	318.1146850585939	44.43879318237306	134.3131561279297	541.974060058594	43.30810546875001	162.4739227294922	533.1543579101565	41.29557418823244	52.37490844726565	363.0072631835939	1543.843994140626	312.4219360351564	336.0334777832032	1271.467041015625	306.7015991210939	498.7428283691409	1498.523315429688	307.339813232422	566.5214843750002	1315.980346679688	307.5115051269532	363.8903198242189	1537.135986328126	483.3073425292971	356.4595947265626	1539.743896484376	140.9597473144532	466.8152565822695	989.6961490856984	366.022022320947	462.845910355369	1000.479849880965	222.8065129755475	412.2054748535159	536.4046020507815	429.5529785156252	413.5121917724612	532.9067993164065	170.3172187805176	381.4690399169924	100.9055061340333	462.2159729003909	386.1377258300783	101.3871192932129	133.4301719665528	525.3622131347659	45.28843307495119	500.4333648681643	537.5642089843752	42.30183982849123	107.4244155883789	312.5302124023439	0	454.6145019531252	318.1146850585939	0	134.3131561279297	381.4690399169924	0	462.2159729003909	386.1377258300783	0	133.4301719665528	530.9985961914065	0	445.8999938964846	541.974060058594	0	162.4739227294922	519.7258300781252	0	554.966735839844	533.1543579101565	0	52.37490844726565	525.3622131347659	0	500.4333648681643	537.5642089843752	0	107.4244155883789	395.5250015258791	1529.811798095704	311.0072097778321	431.9103851318361	1067.562316894531	302.9287452697755	
